<?xml version="1.0" encoding="utf-8"?>
<svg width="383" height="287" viewBox="0 0 383 287" fill="none" xmlns="http://www.w3.org/2000/svg">
  <rect x="35" y="29" width="348" height="257.157" rx="8" fill="#EBEBEB"/>
  <g filter="url(#filter0_d)">
    <rect x="13" y="9" width="348" height="257.157" rx="8" fill="white"/>
  </g>
  <path d="M13 17C13 12.5817 16.5817 9 21 9H353C357.418 9 361 12.5817 361 17V35H13V17Z" fill="#B9B9B9"/>
  <rect opacity="0.2" x="44" y="58" width="286" height="80" rx="8" fill="#D8D8D8"/>
  <rect opacity="0.2" x="209" y="158" width="120" height="89" rx="8" fill="#D8D8D8"/>
  <rect opacity="0.2" x="54" y="174" width="120" height="7" rx="3.5" fill="#D8D8D8"/>
  <rect opacity="0.2" x="54" y="191" width="120" height="7" rx="3.5" fill="#D8D8D8"/>
  <rect opacity="0.2" x="54" y="208" width="120" height="7" rx="3.5" fill="#D8D8D8"/>
  <rect opacity="0.2" x="54" y="225" width="120" height="7" rx="3.5" fill="#D8D8D8"/>
  <circle cx="29.5" cy="22.5" r="5.5" fill="#E64B60"/>
  <circle cx="48.5" cy="22.5" r="5.5" fill="#FFBF00"/>
  <circle cx="67.5" cy="22.5" r="5.5" fill="#20BCA4"/>
  <defs>
    <filter id="filter0_d" x="0" y="0" width="374" height="283.157" filterUnits="userSpaceOnUse" color-interpolation-filters="sRGB">
      <feFlood flood-opacity="0" result="BackgroundImageFix"/>
      <feColorMatrix in="SourceAlpha" type="matrix" values="0 0 0 0 0 0 0 0 0 0 0 0 0 0 0 0 0 0 127 0"/>
      <feMorphology radius="3" operator="dilate" in="SourceAlpha" result="effect1_dropShadow"/>
      <feOffset dy="4"/>
      <feGaussianBlur stdDeviation="5"/>
      <feColorMatrix type="matrix" values="0 0 0 0 0 0 0 0 0 0 0 0 0 0 0 0 0 0 0.05 0"/>
      <feBlend mode="normal" in2="BackgroundImageFix" result="effect1_dropShadow"/>
      <feBlend mode="normal" in="SourceGraphic" in2="effect1_dropShadow" result="shape"/>
    </filter>
    <linearGradient id="paint0_linear_3670_146754" x1="20.0001" y1="14.4001" x2="20.0001" y2="31.2001" gradientUnits="userSpaceOnUse">
      <stop stop-color="#FF424E"/>
      <stop offset="1" stop-color="#5E5CE6"/>
    </linearGradient>
    <linearGradient id="paint1_linear_3670_146754" x1="20.0001" y1="14.4001" x2="20.0001" y2="31.2001" gradientUnits="userSpaceOnUse">
      <stop stop-color="#FF424E"/>
      <stop offset="1" stop-color="#5E5CE6"/>
    </linearGradient>
    <clipPath id="clip0_3670_146754">
      <rect width="20.8" height="26" fill="white" transform="translate(9.6001 5.6001)"/>
    </clipPath>
  </defs>
  <circle cx="187.453" cy="97.984" r="16" fill="white"/>
  <g clip-path="url(#clip0_3670_146754)" transform="matrix(1, 0, 0, 1, 167.453049, 77.984406)">
    <path d="M22.2429 17.3434H24.6974L20.0001 5.6001L15.3028 17.3434H18.0282C18.3553 17.3434 18.6494 17.1443 18.7709 16.8405L20.0001 13.7676L21.1287 16.5891C21.3109 17.0447 21.7522 17.3434 22.2429 17.3434Z" fill="url(#paint0_linear_3670_146754)"/>
    <path d="M24.2793 24.4656L20.0001 21.9401L15.7209 24.4656L17.1322 20.9372C17.2776 20.5739 17.1388 20.1588 16.8042 19.956L14.7547 18.7136L9.6001 31.6001L20.0001 25.4623L30.4001 31.6001L25.2455 18.7136L23.196 19.956C22.8614 20.1588 22.7226 20.5739 22.8679 20.9372L24.2793 24.4656Z" fill="url(#paint1_linear_3670_146754)"/>
  </g>
</svg>